<svg width="709" height="805" viewBox="0 0 709 805" fill="none" xmlns="http://www.w3.org/2000/svg">
<path opacity="0.75" d="M395.77 138.357L398.621 139.293L398.715 139.005L398.75 138.704L395.77 138.357ZM177.054 805V808H179.227L179.905 805.935L177.054 805ZM0.866195 805L-1.94595 803.955L-3.4489 808H0.866195V805ZM299.668 0.83136V-2.16864H297.582L296.856 -0.213531L299.668 0.83136ZM411.788 0.83136L414.767 1.17841L415.157 -2.16864H411.788V0.83136ZM577.482 805L574.632 805.937L575.31 808H577.482V805ZM358.213 138.357L355.238 138.74L355.274 139.023L355.363 139.295L358.213 138.357ZM340.539 0.83136V-2.16864H337.129L337.564 1.21375L340.539 0.83136ZM453.763 0.83136L456.574 -0.218628L455.845 -2.16864H453.763V0.83136ZM754.222 805V808H758.545L757.032 803.95L754.222 805ZM567.54 505.646H570.54V502.646H567.54V505.646ZM567.54 635.44V638.44H570.54V635.44H567.54ZM142.811 635.44H139.811V638.44H142.811V635.44ZM142.811 505.646V502.646H139.811V505.646H142.811ZM392.92 137.422L174.204 804.065L179.905 805.935L398.621 139.293L392.92 137.422ZM177.054 802H0.866195V808H177.054V802ZM3.67835 806.045L302.48 1.87625L296.856 -0.213531L-1.94595 803.955L3.67835 806.045ZM299.668 3.83136H411.788V-2.16864H299.668V3.83136ZM408.808 0.484314L392.791 138.01L398.75 138.704L414.767 1.17841L408.808 0.484314ZM580.331 804.063L361.063 137.42L355.363 139.295L574.632 805.937L580.331 804.063ZM361.189 137.975L343.515 0.448975L337.564 1.21375L355.238 138.74L361.189 137.975ZM340.539 3.83136H453.763V-2.16864H340.539V3.83136ZM450.953 1.88135L751.412 806.05L757.032 803.95L456.574 -0.218628L450.953 1.88135ZM754.222 802H577.482V808H754.222V802ZM564.54 505.646V635.44H570.54V505.646H564.54ZM567.54 632.44H142.811V638.44H567.54V632.44ZM145.811 635.44V505.646H139.811V635.44H145.811ZM142.811 508.646H567.54V502.646H142.811V508.646Z" fill="#156963"/>
</svg>
