<svg width="491" height="828" viewBox="0 0 491 828" fill="none" xmlns="http://www.w3.org/2000/svg">
<path d="M657.171 395.689H658.171V394.689H657.171V395.689ZM657.171 714.374L657.94 715.013L658.171 714.735V714.374H657.171ZM599.178 763.53L599.73 764.364L599.738 764.359L599.178 763.53ZM498.104 808.268L497.814 807.311L498.104 808.268ZM206.483 801.64L206.107 802.567L206.114 802.569L206.483 801.64ZM96.0201 725.973L95.2849 726.651L95.289 726.655L96.0201 725.973ZM25.3239 604.464L24.3782 604.789L24.3789 604.791L25.3239 604.464ZM24.2193 223.92L23.2713 223.601L23.2692 223.608L24.2193 223.92ZM509.703 34.4762L509.25 35.3677L509.256 35.3706L509.703 34.4762ZM612.433 128.37L611.571 128.876L611.576 128.885L612.433 128.37ZM656.618 265.343V266.343H657.731L657.613 265.237L656.618 265.343ZM495.895 265.343L494.906 265.49L495.033 266.343H495.895V265.343ZM423.542 146.596L423.064 147.474L423.071 147.478L423.542 146.596ZM267.79 146.596L268.249 147.484L268.255 147.481L267.79 146.596ZM213.663 195.752L212.835 195.191L213.663 195.752ZM180.524 550.889L179.554 551.132L179.555 551.135L180.524 550.889ZM216.424 632.08L215.612 632.662L215.617 632.67L215.623 632.677L216.424 632.08ZM423.542 691.177L423.299 690.207L423.295 690.208L423.542 691.177ZM466.07 675.16L466.576 676.023L466.585 676.018L466.07 675.16ZM491.477 656.381L492.184 657.088L492.477 656.796V656.381H491.477ZM491.477 513.884H492.477V512.884H491.477V513.884ZM340.143 513.884H339.143V514.884H340.143V513.884ZM340.143 395.689V394.689H339.143V395.689H340.143ZM656.171 395.689V714.374H658.171V395.689H656.171ZM656.401 713.736C643.968 728.729 624.724 745.053 598.618 762.702L599.738 764.359C625.918 746.66 645.336 730.213 657.94 715.013L656.401 713.736ZM598.626 762.696C572.588 779.933 538.993 794.81 497.814 807.311L498.395 809.224C539.695 796.687 573.482 781.739 599.73 764.364L598.626 762.696ZM497.814 807.311C456.696 819.793 406.907 826.046 348.427 826.046V828.046C407.038 828.046 457.034 821.78 498.395 809.224L497.814 807.311ZM348.427 826.046C296.62 826.046 249.432 817.596 206.851 800.71L206.114 802.569C248.958 819.559 296.4 828.046 348.427 828.046V826.046ZM206.858 800.713C164.279 783.461 127.58 758.321 96.7511 725.291L95.289 726.655C126.32 759.902 163.262 785.207 206.107 802.567L206.858 800.713ZM96.7552 725.295C66.2981 692.269 42.7988 651.89 26.2689 604.137L24.3789 604.791C40.9878 652.772 64.6193 693.399 95.2849 726.651L96.7552 725.295ZM26.2697 604.139C9.74288 556.028 1.4698 501.093 1.4698 439.322H-0.530205C-0.530205 501.269 7.76611 556.429 24.3782 604.789L26.2697 604.139ZM1.4698 439.322V389.062H-0.530205V439.322H1.4698ZM1.4698 389.062C1.4698 327.286 9.37576 272.347 25.1694 224.232L23.2692 223.608C7.39682 271.963 -0.530205 327.119 -0.530205 389.062H1.4698ZM25.1672 224.238C41.331 176.114 64.2804 135.551 94.0018 102.527L92.5152 101.19C62.5867 134.443 39.5099 175.255 23.2713 223.601L25.1672 224.238ZM94.0018 102.527C123.728 69.4986 159.138 44.3625 200.242 27.1136L199.468 25.2694C158.093 42.6321 122.439 67.9407 92.5152 101.19L94.0018 102.527ZM200.242 27.1136C241.344 9.86539 287.052 1.23279 337.381 1.23279V-0.767212C286.821 -0.767212 240.845 7.90601 199.468 25.2694L200.242 27.1136ZM337.381 1.23279C407.241 1.23279 464.512 12.6323 509.25 35.3677L510.156 33.5847C465.05 10.6622 407.441 -0.767212 337.381 -0.767212V1.23279ZM509.256 35.3706C554.019 57.752 588.111 88.9211 611.571 128.876L613.296 127.863C589.625 87.5484 555.23 56.1219 510.15 33.5818L509.256 35.3706ZM611.576 128.885C635.427 168.513 650.115 214.028 655.624 265.45L657.613 265.237C652.076 213.56 637.307 167.759 613.29 127.854L611.576 128.885ZM656.618 264.343H495.895V266.343H656.618V264.343ZM496.884 265.196C492.819 237.85 485.054 213.98 473.569 193.604L471.827 194.586C483.171 214.713 490.87 238.342 494.906 265.49L496.884 265.196ZM473.569 193.604C462.057 173.18 445.53 157.214 424.013 145.714L423.071 147.478C444.266 158.807 460.51 174.507 471.827 194.586L473.569 193.604ZM424.02 145.717C402.838 134.198 375.41 128.474 341.8 128.474V130.474C375.203 130.474 402.27 136.165 423.064 147.474L424.02 145.717ZM341.8 128.474C314.042 128.474 289.209 134.212 267.324 145.711L268.255 147.481C289.818 136.151 314.325 130.474 341.8 130.474V128.474ZM267.33 145.708C245.813 156.837 227.648 173.341 212.835 195.191L214.491 196.313C229.134 174.714 247.054 158.447 268.249 147.484L267.33 145.708ZM212.835 195.191C198.025 217.036 186.753 244.033 179 276.155L180.944 276.624C188.655 244.678 199.844 217.916 214.491 196.313L212.835 195.191ZM179 276.155C171.244 308.284 167.373 345.555 167.373 387.957H169.373C169.373 345.671 173.234 308.563 180.944 276.624L179 276.155ZM167.373 387.957V439.322H169.373V387.957H167.373ZM167.373 439.322C167.373 481.36 171.429 518.633 179.554 551.132L181.494 550.647C173.418 518.341 169.373 481.236 169.373 439.322H167.373ZM179.555 551.135C187.679 583.265 199.692 610.449 215.612 632.662L217.237 631.497C201.491 609.526 189.57 582.583 181.494 550.644L179.555 551.135ZM215.623 632.677C231.918 654.528 251.929 671.022 275.65 682.141L276.499 680.33C253.089 669.357 233.333 653.08 217.226 631.482L215.623 632.677ZM275.65 682.141C299.372 693.261 326.954 698.805 358.369 698.805V696.805C327.189 696.805 299.907 691.303 276.499 680.33L275.65 682.141ZM358.369 698.805C384.561 698.805 406.375 696.592 423.789 692.146L423.295 690.208C406.098 694.599 384.463 696.805 358.369 696.805V698.805ZM423.785 692.147C441.512 687.715 455.787 682.347 466.576 676.023L465.564 674.297C454.997 680.492 440.92 685.802 423.299 690.207L423.785 692.147ZM466.585 676.018C477.667 669.368 486.212 663.06 492.184 657.088L490.77 655.674C484.958 661.485 476.565 667.697 465.556 674.303L466.585 676.018ZM492.477 656.381V513.884H490.477V656.381H492.477ZM491.477 512.884H340.143V514.884H491.477V512.884ZM341.143 513.884V395.689H339.143V513.884H341.143ZM340.143 396.689H657.171V394.689H340.143V396.689Z" fill="#156963"/>
</svg>
