<svg width="12" height="12" viewBox="0 0 12 12" fill="none" xmlns="http://www.w3.org/2000/svg">
<g clip-path="url(#clip0_16_3909)">
<path d="M10 0H2C1.46957 0 0.960859 0.210714 0.585786 0.585786C0.210714 0.960859 0 1.46957 0 2L0 10C0 10.5304 0.210714 11.0391 0.585786 11.4142C0.960859 11.7893 1.46957 12 2 12H10C10.5304 12 11.0391 11.7893 11.4142 11.4142C11.7893 11.0391 12 10.5304 12 10V2C12 1.46957 11.7893 0.960859 11.4142 0.585786C11.0391 0.210714 10.5304 0 10 0V0ZM11 10C11 10.2652 10.8946 10.5196 10.7071 10.7071C10.5196 10.8946 10.2652 11 10 11H2C1.73478 11 1.48043 10.8946 1.29289 10.7071C1.10536 10.5196 1 10.2652 1 10V2C1 1.73478 1.10536 1.48043 1.29289 1.29289C1.48043 1.10536 1.73478 1 2 1H10C10.2652 1 10.5196 1.10536 10.7071 1.29289C10.8946 1.48043 11 1.73478 11 2V10Z" fill="white"/>
<path d="M6 3C5.40666 3 4.82664 3.17595 4.33329 3.50559C3.83994 3.83524 3.45543 4.30377 3.22836 4.85195C3.0013 5.40013 2.94189 6.00333 3.05765 6.58527C3.1734 7.16721 3.45912 7.70176 3.87868 8.12132C4.29824 8.54088 4.83279 8.8266 5.41473 8.94236C5.99667 9.05811 6.59987 8.9987 7.14805 8.77164C7.69623 8.54458 8.16477 8.16006 8.49441 7.66671C8.82406 7.17336 9 6.59334 9 6C9 5.20435 8.68393 4.44129 8.12132 3.87868C7.55871 3.31607 6.79565 3 6 3ZM6 8C5.60444 8 5.21776 7.8827 4.88886 7.66294C4.55996 7.44318 4.30362 7.13082 4.15224 6.76537C4.00087 6.39992 3.96126 5.99778 4.03843 5.60982C4.1156 5.22186 4.30608 4.86549 4.58579 4.58579C4.86549 4.30608 5.22186 4.1156 5.60982 4.03843C5.99778 3.96126 6.39992 4.00087 6.76537 4.15224C7.13082 4.30362 7.44318 4.55996 7.66294 4.88886C7.8827 5.21776 8 5.60444 8 6C8 6.53043 7.78929 7.03914 7.41422 7.41421C7.03914 7.78929 6.53043 8 6 8Z" fill="white"/>
<path d="M9.25 3.5C9.66421 3.5 10 3.16421 10 2.75C10 2.33579 9.66421 2 9.25 2C8.83579 2 8.5 2.33579 8.5 2.75C8.5 3.16421 8.83579 3.5 9.25 3.5Z" fill="white"/>
</g>
<defs>
<clipPath id="clip0_16_3909">
<rect width="12" height="12" fill="white"/>
</clipPath>
</defs>
</svg>
