<svg width="16" height="16" viewBox="0 0 16 16" fill="none" xmlns="http://www.w3.org/2000/svg">
<path d="M2.96842 9.27247L7.60349 13.6266C7.65534 13.6753 7.68126 13.6997 7.70594 13.7177C7.8818 13.8465 8.1208 13.8465 8.29667 13.7177C8.32135 13.6997 8.34727 13.6753 8.39911 13.6266L13.0342 9.27247C14.3383 8.04739 14.4967 6.03139 13.3998 4.6177L13.1936 4.35189C11.8815 2.66071 9.24772 2.94433 8.32575 4.87609C8.19551 5.14896 7.80709 5.14896 7.67686 4.87609C6.75488 2.94433 4.12112 2.66071 2.809 4.35189L2.60276 4.6177C1.50593 6.03139 1.6643 8.04739 2.96842 9.27247Z" stroke="#5F5F5F" stroke-width="2"/>
</svg>
