<svg width="12" height="13" viewBox="0 0 12 13" fill="none" xmlns="http://www.w3.org/2000/svg">
<path d="M11.9934 12.3687V12.3681H11.9964V7.83192C11.9964 5.61277 11.533 3.90332 9.01639 3.90332C7.80659 3.90332 6.99473 4.58772 6.66329 5.23656H6.62829V4.1105H4.24219V12.3681H6.72677V8.27926C6.72677 7.20267 6.92474 6.16164 8.21803 6.16164C9.49231 6.16164 9.51131 7.39026 9.51131 8.34832V12.3687H11.9934Z" fill="white"/>
<path d="M0.199219 4.11133H2.6868V12.3687H0.199219V4.11133Z" fill="white"/>
<path d="M1.44077 0C0.645395 0 0 0.665422 0 1.48547C0 2.30552 0.645395 2.98486 1.44077 2.98486C2.23614 2.98486 2.88153 2.30552 2.88153 1.48547C2.88103 0.665422 2.23564 0 1.44077 0V0Z" fill="white"/>
</svg>
