<svg width="609" height="609" viewBox="0 0 609 609" fill="none" xmlns="http://www.w3.org/2000/svg">
<g clip-path="url(#clip0_444_330)">
<path d="M608.553 0H0V608.553H608.553V0Z" fill="#156963"/>
<path d="M122.454 226.068L136.823 240.253C136.823 240.253 126.046 245.036 122.454 256.244C122.454 256.244 120.914 248.977 108.598 239.739L122.454 226.068Z" fill="white"/>
<path d="M122.085 226.066L136.525 240.179C136.525 240.179 125.772 245.015 122.235 256.241C122.235 256.241 120.66 248.982 108.297 239.806L122.085 226.066Z" fill="white"/>
<path d="M122.085 374.277L136.525 360.164C136.525 360.164 125.772 355.327 122.235 344.101C122.235 344.101 120.66 351.36 108.297 360.536L122.085 374.277Z" fill="white"/>
<path d="M174.289 248.151L174.347 268.342C174.347 268.342 163.36 264.064 152.875 269.412C152.875 269.412 156.947 263.199 154.825 247.95L174.289 248.151Z" stroke="white" stroke-width="3" stroke-miterlimit="10"/>
<path d="M196.387 299.977L182.263 314.406C182.263 314.406 177.434 303.65 166.211 300.105C166.211 300.105 173.471 298.534 182.657 286.179L196.387 299.977Z" fill="white"/>
<path d="M175.28 352.227L155.093 352.627C155.093 352.627 159.184 341.569 153.66 331.176C153.66 331.176 159.941 335.142 175.151 332.762L175.28 352.227Z" stroke="white" stroke-width="3" stroke-miterlimit="10"/>
<path d="M71.3042 248.151L71.2461 268.342C71.2461 268.342 82.2334 264.064 92.7183 269.412C92.7183 269.412 88.6461 263.199 90.7686 247.95L71.3042 248.151Z" stroke="white" stroke-width="3" stroke-miterlimit="10"/>
<path d="M49.207 299.977L63.3308 314.406C63.3308 314.406 68.1593 303.65 79.3826 300.105C79.3826 300.105 72.1221 298.534 62.9368 286.179L49.207 299.977Z" fill="white"/>
<path d="M70.3125 352.227L90.4998 352.627C90.4998 352.627 86.4081 341.569 91.9321 331.176C91.9321 331.176 85.6517 335.142 70.4409 332.762L70.3125 352.227Z" stroke="white" stroke-width="3" stroke-miterlimit="10"/>
<path d="M124.578 277.305C129.095 277.732 133.377 279.514 136.864 282.417C131.28 288.359 125.02 294.138 125.02 294.138C125.02 294.138 124.629 285.393 124.578 277.305Z" fill="white"/>
<path d="M143.496 274.636C142.634 275.847 141.536 277.192 140.314 278.609C135.889 274.847 130.382 272.59 124.59 272.163C124.588 269.847 124.732 267.533 125.021 265.235C125.677 260.826 127.307 256.619 129.793 252.919C132.279 249.219 135.557 246.119 139.39 243.845C142.088 246.033 144.204 248.853 145.549 252.056C147.602 257.188 148.628 267.452 143.496 274.636Z" fill="#E2BEAA"/>
<path d="M120.524 277.285C120.473 285.383 120.083 294.138 120.083 294.138C120.083 294.138 113.76 288.308 108.156 282.324C111.674 279.431 115.987 277.674 120.524 277.285Z" fill="white"/>
<path d="M120.516 272.153C114.706 272.537 109.169 274.762 104.709 278.506C103.508 277.13 102.451 275.817 101.61 274.636C96.4777 267.452 97.5041 257.188 99.5569 252.056C100.902 248.853 103.017 246.033 105.715 243.845C109.548 246.119 112.827 249.219 115.313 252.919C117.798 256.619 119.428 260.826 120.084 265.235C120.374 267.529 120.518 269.84 120.516 272.153Z" fill="#E2BEAA"/>
<path d="M136.311 317.591C132.932 320.237 128.863 321.858 124.59 322.261C124.662 314.471 125.021 306.455 125.021 306.455C125.021 306.455 130.871 311.853 136.311 317.591Z" fill="white"/>
<path d="M145.55 348.537C144.205 351.739 142.089 354.56 139.391 356.748C135.558 354.473 132.279 351.374 129.794 347.674C127.308 343.974 125.678 339.766 125.022 335.358C124.705 332.718 124.557 330.061 124.58 327.403C130.145 326.995 135.453 324.896 139.792 321.389C141.229 323.021 142.512 324.581 143.497 325.956C148.629 333.141 147.603 343.405 145.55 348.537Z" fill="#E2BEAA"/>
<path d="M120.514 322.281C116.218 321.915 112.119 320.315 108.711 317.673C114.182 311.905 120.083 306.455 120.083 306.455C120.083 306.455 120.443 314.491 120.514 322.281Z" fill="white"/>
<path d="M120.526 327.413C120.549 330.068 120.401 332.722 120.084 335.358C119.428 339.766 117.798 343.973 115.313 347.673C112.827 351.373 109.548 354.473 105.715 356.748C103.017 354.56 100.902 351.739 99.5569 348.536C97.5041 343.404 96.4777 333.141 101.61 325.956C102.741 324.404 103.95 322.91 105.233 321.481C109.603 324.978 114.941 327.049 120.526 327.413Z" fill="#E2BEAA"/>
<path d="M144.942 301.846C144.528 306.364 142.757 310.65 139.862 314.142C133.898 308.569 128.109 302.329 128.109 302.329C128.109 302.329 136.844 301.918 144.942 301.846Z" fill="white"/>
<path d="M178.433 316.565C176.257 319.271 173.442 321.394 170.243 322.744C165.121 324.817 154.857 325.864 147.662 320.752C146.451 319.89 145.096 318.802 143.68 317.581C147.428 313.147 149.67 307.637 150.084 301.846C152.4 301.828 154.715 301.966 157.012 302.257C161.422 302.9 165.632 304.518 169.338 306.993C173.043 309.468 176.151 312.738 178.433 316.565Z" fill="#E2BEAA"/>
<path d="M139.873 285.434C142.785 288.947 144.554 293.266 144.943 297.812C136.845 297.771 128.09 297.402 128.09 297.402C128.09 297.402 133.909 291.069 139.873 285.434Z" fill="white"/>
<path d="M178.351 282.899C176.085 286.738 172.992 290.024 169.298 292.518C165.603 295.012 161.4 296.653 156.992 297.32C154.702 297.623 152.394 297.774 150.084 297.771C149.682 291.962 147.438 286.433 143.68 281.985C145.055 280.785 146.369 279.717 147.539 278.875C154.714 273.723 164.977 274.719 170.12 276.761C173.327 278.098 176.155 280.206 178.351 282.899Z" fill="#E2BEAA"/>
<path d="M94.8362 301.846C95.2436 307.645 97.4868 313.163 101.241 317.601C99.8346 318.823 98.49 319.9 97.2891 320.752C90.0941 325.864 79.8302 324.817 74.7085 322.744C71.5068 321.392 68.6896 319.27 66.5078 316.565C68.7935 312.738 71.9026 309.469 75.6096 306.994C79.3166 304.519 83.5283 302.901 87.9387 302.257C90.2261 301.966 92.5305 301.829 94.8362 301.846Z" fill="#E2BEAA"/>
<path d="M116.839 302.329C116.839 302.329 111.04 308.59 105.066 314.163C102.156 310.666 100.377 306.367 99.9648 301.836C108.063 301.918 116.839 302.329 116.839 302.329Z" fill="white"/>
<path d="M101.238 281.965C97.4744 286.418 95.2276 291.955 94.8235 297.771C92.5237 297.774 90.2262 297.623 87.9465 297.32C83.5408 296.651 79.3394 295.01 75.6467 292.516C71.9541 290.021 68.8629 286.736 66.5977 282.899C68.7913 280.203 71.6198 278.094 74.8293 276.761C79.9613 274.719 90.2354 273.723 97.3997 278.875C98.5697 279.717 99.8732 280.774 101.238 281.965Z" fill="#E2BEAA"/>
<path d="M116.849 297.402C116.849 297.402 108.073 297.771 99.9648 297.812C100.358 293.262 102.13 288.94 105.045 285.424C111.019 291.048 116.849 297.402 116.849 297.402Z" fill="white"/>
<path d="M274.271 260.238V331.258H258.506L228.849 286.305V331.258H221.93V260.238H234.989L267.351 308.782V260.238H274.271Z" fill="white"/>
<path d="M318.391 260.238L338.162 331.258H317.454L313.24 315.857H291.856L287.33 331.258H279.266L300.285 260.238H318.391ZM293.885 308.729H311.315L302.938 277.252L293.885 308.729Z" fill="white"/>
<path d="M343.727 331.258V260.238H374.268C382.21 260.238 388.558 261.912 393.31 265.259C395.544 266.71 397.37 268.706 398.618 271.06C399.865 273.413 400.491 276.046 400.438 278.709C400.438 287.312 395.339 292.913 385.142 295.514C390.378 297.457 393.769 299.59 395.313 301.914C396.856 304.238 397.905 308.747 398.461 315.441C399.12 323.419 400.455 328.691 402.468 331.258H380.095C378.558 327.334 377.832 323.139 377.962 318.927L377.858 314.713L377.753 309.406C377.753 301.22 374.458 297.127 367.868 297.127H364.33V331.258H343.727ZM364.33 291.248H368.492C376.297 291.248 380.199 287.172 380.199 279.021C380.199 270.87 376.297 266.795 368.492 266.794H364.33V291.248Z" fill="white"/>
<path d="M438.835 292.913H468.075V331.258H461.52L459.282 326.367C454.028 330.27 447.669 332.401 441.124 332.455C430.614 332.455 422.455 329.307 416.644 323.012C410.835 316.716 407.93 307.845 407.93 296.399C407.93 285.264 411.008 276.255 417.165 269.37C423.322 262.485 431.377 259.042 441.332 259.042C454.443 259.042 462.421 265.736 465.266 279.125L455.588 283.548V281.831L455.432 277.981C454.773 269.622 450.905 265.442 443.83 265.442C438.627 265.442 435.072 267.662 433.164 272.102C431.255 276.542 430.302 284.814 430.302 296.919C430.302 308.228 431.074 315.911 432.617 319.968C433.196 321.822 434.379 323.429 435.978 324.532C437.576 325.635 439.498 326.171 441.436 326.055C446.535 326.055 449.085 323.211 449.085 317.523V300.041H438.835V292.913Z" fill="white"/>
<path d="M498.876 260.238V331.258H478.273V260.238H498.876Z" fill="white"/>
<path d="M562.51 260.238V266.69L528.378 324.13H559.96V331.258H505.59V324.13L539.305 267.367H510.429V260.238H562.51Z" fill="white"/>
</g>
<defs>
<clipPath id="clip0_444_330">
<rect width="608.553" height="608.553" fill="white"/>
</clipPath>
</defs>
</svg>
