<svg width="656" height="805" viewBox="0 0 656 805" fill="none" xmlns="http://www.w3.org/2000/svg">
<path opacity="0.2" d="M655.292 0.83136H658.292V-2.16864H655.292V0.83136ZM655.292 805V808H658.292V805H655.292ZM489.598 805L487.025 806.542L487.899 808H489.598V805ZM166.495 265.942L169.068 264.4L163.495 255.101V265.942H166.495ZM166.495 805V808H169.495V805H166.495ZM0.800774 805H-2.19923V808H0.800774V805ZM0.800774 0.83136V-2.16864H-2.19923V0.83136H0.800774ZM166.495 0.83136L169.068 -0.711731L168.194 -2.16864H166.495V0.83136ZM490.151 540.442L487.578 541.985L493.151 551.276V540.442H490.151ZM490.151 0.83136V-2.16864H487.151V0.83136H490.151ZM652.292 0.83136V805H658.292V0.83136H652.292ZM655.292 802H489.598V808H655.292V802ZM492.172 803.458L169.068 264.4L163.922 267.484L487.025 806.542L492.172 803.458ZM163.495 265.942V805H169.495V265.942H163.495ZM166.495 802H0.800774V808H166.495V802ZM3.80077 805V0.83136H-2.19923V805H3.80077ZM0.800774 3.83136H166.495V-2.16864H0.800774V3.83136ZM163.922 2.37445L487.578 541.985L492.723 538.899L169.068 -0.711731L163.922 2.37445ZM493.151 540.442V0.83136H487.151V540.442H493.151ZM490.151 3.83136H655.292V-2.16864H490.151V3.83136Z" fill="#156963"/>
</svg>
