<svg width="27" height="27" viewBox="0 0 27 27" fill="none" xmlns="http://www.w3.org/2000/svg">
<path d="M9.65875 11.5779C11.0272 13.9819 13.0181 15.9728 15.4221 17.3412L16.7113 15.5358C16.9186 15.2455 17.2251 15.0413 17.5728 14.9617C17.9206 14.8822 18.2854 14.9329 18.5983 15.1042C20.6609 16.2313 22.9386 16.9093 25.2819 17.0933C25.6476 17.1223 25.9889 17.2881 26.2379 17.5575C26.4868 17.827 26.625 18.1804 26.625 18.5473V25.0544C26.6251 25.4155 26.4912 25.7637 26.2493 26.0318C26.0074 26.2998 25.6746 26.4686 25.3154 26.5054C24.5425 26.5856 23.7638 26.625 22.9792 26.625C10.4958 26.625 0.375 16.5042 0.375 4.02083C0.375 3.23625 0.414375 2.4575 0.494583 1.68458C0.531413 1.32539 0.700185 0.992634 0.968235 0.750716C1.23628 0.508798 1.58455 0.374922 1.94563 0.375H8.45271C8.81957 0.374954 9.17297 0.513179 9.44245 0.762116C9.71193 1.01105 9.87769 1.35241 9.90667 1.71812C10.0907 4.06136 10.7687 6.33912 11.8958 8.40167C12.0671 8.71457 12.1178 9.07941 12.0383 9.42716C11.9587 9.77491 11.7545 10.0814 11.4642 10.2888L9.65875 11.5779ZM5.98083 10.6198L8.75167 8.64083C7.96531 6.94347 7.42655 5.14206 7.15188 3.29167H3.30625C3.2975 3.53375 3.29312 3.77729 3.29312 4.02083C3.29167 14.8942 12.1058 23.7083 22.9792 23.7083C23.2227 23.7083 23.4663 23.704 23.7083 23.6938V19.8481C21.8579 19.5734 20.0565 19.0347 18.3592 18.2483L16.3802 21.0192C15.5835 20.7096 14.8096 20.3441 14.0644 19.9254L13.9798 19.8773C11.1194 18.2494 8.75062 15.8806 7.12271 13.0202L7.07458 12.9356C6.65591 12.1904 6.29041 11.4165 5.98083 10.6198Z" fill="white"/>
</svg>
