<svg width="48" height="48" viewBox="0 0 48 48" fill="none" xmlns="http://www.w3.org/2000/svg">
<g clip-path="url(#clip0_15_1160)">
<path d="M19.2976 6.88234C15.1042 2.69108 6.89824 2.20508 1.0898 2.20508C0.488251 2.20508 0 2.69323 0 3.29478C0 9.10322 0.483858 17.3092 4.67726 21.5027C6.44708 23.2725 9.16061 24.0637 11.8501 24.0637C14.7729 24.0637 17.6695 23.1287 19.2976 21.5005C22.4209 18.3772 22.9942 10.5767 19.2976 6.88234ZM17.7567 19.9617C15.4246 22.2916 8.94922 22.6905 6.22047 19.9617C2.83562 16.577 2.24928 9.70048 2.18604 4.39112C7.4954 4.45436 14.3719 5.04059 17.7566 8.42545C20.4855 11.1542 20.0866 17.6318 17.7567 19.9617Z" fill="white"/>
<path d="M46.9105 6.51562C41.102 6.51562 32.896 6.99948 28.7025 11.1929C25.0061 14.8872 25.5792 22.6878 28.7025 25.8111C30.3307 27.4371 33.2251 28.3721 36.1479 28.3721C38.8374 28.3721 41.5488 27.5831 43.3229 25.8133C47.5141 21.6199 48.0002 13.414 48.0002 7.60543C48.0003 7.00388 47.512 6.51562 46.9105 6.51562ZM41.7776 24.2701C39.0489 26.9989 32.5713 26.6 30.2414 24.2701C27.9115 21.9402 27.5126 15.4626 30.2414 12.7339C33.6262 9.34899 40.5026 8.76276 45.812 8.69952C45.7488 14.011 45.1625 20.8875 41.7776 24.2701Z" fill="white"/>
<path d="M39.0411 15.9492C38.7839 15.4021 38.0472 15.2148 37.5045 15.4675C29.146 19.3972 25.0398 26.2497 23.174 33.2939C20.8659 18.3161 14.1899 13.75 11.3587 11.8124C11.0056 11.5705 10.731 11.394 10.5785 11.2436C10.1535 10.8186 9.46252 10.8186 9.03751 11.2436C8.6125 11.6686 8.6125 12.3595 9.03751 12.7845C9.25328 12.9982 9.62598 13.2662 10.1295 13.6105C13.3203 15.7923 21.7965 21.5921 21.7965 44.7061C21.7965 45.3076 22.2847 45.7959 22.8863 45.7959C23.4879 45.7959 23.9761 45.3076 23.9761 44.7083C23.9761 35.369 26.4848 23.0568 38.433 17.4423C38.433 17.4401 38.6095 17.3573 38.6095 17.3573C39.1522 17.1 39.2982 16.4941 39.0411 15.9492Z" fill="white"/>
</g>
<defs>
<clipPath id="clip0_15_1160">
<rect width="48" height="48" fill="white"/>
</clipPath>
</defs>
</svg>
