<svg width="394" height="805" viewBox="0 0 394 805" fill="none" xmlns="http://www.w3.org/2000/svg">
<path d="M-233.199 0.83136V-2.16864H-236.199V0.83136H-233.199ZM225.221 28.4471L224.067 31.2163L224.075 31.2197L225.221 28.4471ZM341.759 354.312L339.051 353.022L339.047 353.029L339.044 353.036L341.759 354.312ZM280.452 431.084L282.29 433.455L282.294 433.452L280.452 431.084ZM188.216 479.687L187.241 476.85L187.023 476.925L186.819 477.033L188.216 479.687ZM135.746 507.303V510.303H136.488L137.144 509.958L135.746 507.303ZM-124.946 507.303L-127.946 507.329L-127.92 510.303H-124.946V507.303ZM-126.05 378.062V375.062H-129.076L-129.05 378.087L-126.05 378.062ZM183.245 319.516L180.606 318.091L180.594 318.112L180.584 318.132L183.245 319.516ZM-67.5051 130.625V127.625H-70.5051V130.625H-67.5051ZM-67.5051 805V808H-64.5051V805H-67.5051ZM-233.199 805H-236.199V808H-233.199V805ZM216.384 805L213.713 806.366L214.549 808H216.384V805ZM33.0159 446.548L32.997 443.549L28.1273 443.579L30.3451 447.915L33.0159 446.548ZM208.099 445.444L210.753 444.044L209.903 442.432L208.08 442.444L208.099 445.444ZM393.677 797.268H396.677V796.525L396.33 795.868L393.677 797.268ZM393.677 805V808H396.677V805H393.677ZM-233.199 3.83136H66.7071V-2.16864H-233.199V3.83136ZM66.7071 3.83136C127.91 3.83136 180.336 12.9948 224.067 31.2163L226.375 25.6778C181.736 7.07837 128.486 -2.16864 66.7071 -2.16864V3.83136ZM224.075 31.2197C268.141 49.4287 301.885 76.3169 325.451 111.848L330.451 108.531C306.151 71.8931 271.407 44.2863 226.367 25.6744L224.075 31.2197ZM325.451 111.848C348.994 147.343 360.852 191.104 360.852 243.297H366.852C366.852 190.182 354.776 145.205 330.451 108.531L325.451 111.848ZM360.852 243.297C360.852 286.043 353.544 322.586 339.051 353.022L344.468 355.602C359.431 324.179 366.852 286.712 366.852 243.297H360.852ZM339.044 353.036C324.884 383.172 304.746 408.388 278.611 428.716L282.294 433.452C309.181 412.54 329.914 386.575 344.474 355.588L339.044 353.036ZM278.615 428.712C252.764 448.738 222.318 464.792 187.241 476.85L189.191 482.524C224.81 470.28 255.855 453.932 282.29 433.455L278.615 428.712ZM186.819 477.033L134.349 504.648L137.144 509.958L189.613 482.342L186.819 477.033ZM135.746 504.303H-124.946V510.303H135.746V504.303ZM-121.946 507.277L-123.05 378.036L-129.05 378.087L-127.946 507.329L-121.946 507.277ZM-126.05 381.062H67.8117V375.062H-126.05V381.062ZM67.8117 381.062C97.2357 381.062 121.88 375.849 141.587 365.238L138.742 359.955C120.155 369.964 96.5647 375.062 67.8117 375.062V381.062ZM141.587 365.238C161.237 354.657 176.042 339.871 185.907 320.9L180.584 318.132C171.302 335.982 157.386 349.916 138.742 359.955L141.587 365.238ZM185.885 320.942C196.099 302.027 201.158 280.167 201.158 255.448H195.158C195.158 279.333 190.275 300.184 180.606 318.091L185.885 320.942ZM201.158 255.448C201.158 229.304 196.302 206.54 186.47 187.255L181.125 189.981C190.44 208.253 195.158 230.043 195.158 255.448H201.158ZM186.47 187.255C176.597 167.889 161.582 153.082 141.527 142.864L138.803 148.211C157.777 157.877 171.851 171.789 181.125 189.981L186.47 187.255ZM141.527 142.864C121.47 132.647 96.4813 127.625 66.7071 127.625V133.625C95.8463 133.625 119.83 138.545 138.803 148.211L141.527 142.864ZM66.7071 127.625H-67.5051V133.625H66.7071V127.625ZM-70.5051 130.625V805H-64.5051V130.625H-70.5051ZM-67.5051 802H-233.199V808H-67.5051V802ZM-230.199 805V0.83136H-236.199V805H-230.199ZM219.055 803.634L35.6868 445.182L30.3451 447.915L213.713 806.366L219.055 803.634ZM33.0349 449.548L208.118 448.444L208.08 442.444L32.997 443.549L33.0349 449.548ZM205.446 446.843L391.023 798.667L396.33 795.868L210.753 444.044L205.446 446.843ZM390.677 797.268V805H396.677V797.268H390.677ZM393.677 802H216.384V808H393.677V802Z" fill="white"/>
</svg>
