<svg width="326" height="805" viewBox="0 0 326 805" fill="none" xmlns="http://www.w3.org/2000/svg">
<path d="M325.387 675.759H326.387V674.759H325.387V675.759ZM325.387 805V806H326.387V805H325.387ZM-244.601 805H-245.601V806H-244.601V805ZM-244.601 675.759V674.759H-245.601V675.759H-244.601ZM317.102 93.0677L317.927 93.6333L318.102 93.3777V93.0677H317.102ZM-171.143 805V806H-170.616L-170.318 805.566L-171.143 805ZM-287.681 805H-288.681V806H-287.681V805ZM-287.681 710.002L-288.503 709.432L-288.681 709.689V710.002H-287.681ZM204.43 0.83136V-0.16864H203.907L203.609 0.261261L204.43 0.83136ZM317.102 0.83136H318.102V-0.16864H317.102V0.83136ZM260.214 0.83136H261.214V-0.16864H260.214V0.83136ZM260.214 130.625V131.625H261.214V130.625H260.214ZM-287.129 130.625H-288.129V131.625H-287.129V130.625ZM-287.129 0.83136V-0.16864H-288.129V0.83136H-287.129ZM324.387 675.759V805H326.387V675.759H324.387ZM325.387 804H-244.601V806H325.387V804ZM-243.601 805V675.759H-245.601V805H-243.601ZM-244.601 676.759H325.387V674.759H-244.601V676.759ZM316.278 92.5022L-171.968 804.434L-170.318 805.566L317.927 93.6333L316.278 92.5022ZM-171.143 804H-287.681V806H-171.143V804ZM-286.681 805V710.002H-288.681V805H-286.681ZM-286.86 710.572L205.252 1.40146L203.609 0.261261L-288.503 709.432L-286.86 710.572ZM204.43 1.83136H317.102V-0.16864H204.43V1.83136ZM316.102 0.83136V93.0677H318.102V0.83136H316.102ZM259.214 0.83136V130.625H261.214V0.83136H259.214ZM260.214 129.625H-287.129V131.625H260.214V129.625ZM-286.129 130.625V0.83136H-288.129V130.625H-286.129ZM-287.129 1.83136H260.214V-0.16864H-287.129V1.83136Z" fill="#156963"/>
</svg>
